<svg width="60" height="60" viewBox="0 0 223 223" fill="none" xmlns="http://www.w3.org/2000/svg">
<circle cx="111.5" cy="111.5" r="111.5" fill="white"/>
<path d="M153.459 125.44L134.373 100.443H122.239C122.145 98.7457 121.909 97.1201 121.556 95.5973L136.669 89.3696L149.45 61.0396C149.777 60.3138 149.521 59.4267 148.877 59.0585C148.233 58.6903 147.444 58.9789 147.117 59.7047L134.803 86.9997L120.737 92.7966C119.298 88.8048 116.965 85.8813 114.227 84.8678C119.268 83.7483 123.073 78.7463 123.073 72.7372C123.073 69.9422 122.242 67.3765 120.854 65.3042L128.415 59.4021L128.414 50.4728C128.414 49.66 127.828 49 127.108 49C126.386 49 125.8 49.66 125.8 50.4728V57.8646L119.025 63.1522C117.134 61.4151 114.722 60.3732 112.091 60.3732C109.374 60.3732 106.892 61.4895 104.976 63.3306L97.9717 57.8649V50.4731C97.9717 49.6603 97.3857 49.0003 96.6631 49.0003C95.9433 49.0003 95.3573 49.6603 95.3573 50.4731V59.4056L103.187 65.5198C101.884 67.5519 101.109 70.0422 101.109 72.7407C101.109 78.7476 104.913 83.7497 109.958 84.8713C107.185 85.8964 104.83 88.8781 103.392 92.9474L88.9696 87.004L76.6558 59.7091C76.3289 58.9833 75.5432 58.6946 74.8959 59.0628C74.2515 59.4311 73.9962 60.3181 74.3231 61.044L87.1041 89.3739L102.592 95.7554C102.259 97.2335 102.035 98.8071 101.944 100.447H89.4L70.3152 125.44C69.8451 126.057 69.9082 126.987 70.4556 127.517C70.7043 127.756 71.0067 127.872 71.3082 127.872C71.6747 127.872 72.0412 127.699 72.2993 127.36L90.6023 103.385H101.922C102.049 106.593 102.661 109.57 103.639 112.086L86.0557 122.026L86.5909 144.258L74.3403 169.828C73.9973 170.543 74.2347 171.438 74.8688 171.824C75.0657 171.943 75.2805 172 75.4887 172C75.956 172 76.4045 171.719 76.6419 171.225L89.2241 144.966L88.7153 123.82L104.87 114.687C106.307 117.191 108.172 118.946 110.259 119.603C104.051 121.03 99.2822 129.595 99.2822 139.952C99.2822 151.308 105.017 160.514 112.091 160.514C119.166 160.514 124.901 151.308 124.901 139.952C124.901 129.595 120.129 121.031 113.921 119.603C115.961 118.96 117.786 117.27 119.207 114.859L135.056 123.82L134.547 144.966L147.129 171.225C147.367 171.718 147.815 172 148.283 172C148.491 172 148.706 171.943 148.903 171.824C149.536 171.438 149.774 170.543 149.431 169.828L137.18 144.26L137.716 122.028L120.466 112.277C121.49 109.722 122.133 106.678 122.26 103.387H133.171L151.474 127.362C151.732 127.701 152.099 127.874 152.465 127.874C152.769 127.874 153.069 127.758 153.317 127.519C153.865 126.987 153.929 126.058 153.459 125.44L153.459 125.44Z" fill="black"/>
</svg>
