<svg width="60" height="60" viewBox="0 0 223 223" fill="none" xmlns="http://www.w3.org/2000/svg">
<circle cx="111.5" cy="111.5" r="111.5" fill="black"/>
<path fill-rule="evenodd" clip-rule="evenodd" d="M111.29 172.033C121.327 170.147 129.692 140.91 124.254 129.593C127.6 131.95 139.728 147.512 143.911 151.755C143.074 156.942 136.801 166.373 141.401 169.674C140.984 170.145 139.729 178.162 139.729 178.633C139.729 180.99 153.112 187.592 149.347 181.462L141.819 179.105C142.237 176.748 143.492 170.617 143.492 170.617C148.929 171.56 147.256 157.414 146.838 155.057C145.165 143.74 135.128 133.838 126.345 127.708C120.49 123.936 125.509 125.351 125.091 111.676C125.091 107.903 125.928 108.847 129.691 106.017C131.364 105.074 134.291 102.717 135.546 102.245C137.637 104.131 143.492 112.147 145.165 114.033C145.583 114.504 156.876 117.333 156.876 111.676C154.785 111.676 150.184 112.147 148.093 112.619C147.257 112.619 140.147 104.131 137.219 100.359C133.456 97.5294 128.437 104.131 125.509 104.602C125.509 98.0004 121.745 100.83 119.654 97.0574C119.654 97.0574 124.254 87.1554 125.509 84.3262C125.509 97.0574 130.528 83.3831 134.71 82.9121V81.969H133.874C133.874 81.0259 133.456 81.0259 132.619 81.0259C132.201 82.9121 127.6 87.1554 127.6 87.1554C127.183 86.6844 126.764 81.0259 126.764 80.5538H124.255L117.563 94.7001C116.727 94.2291 115.472 92.8139 114.636 92.8139L117.982 86.2123C117.564 85.2692 113.799 83.3832 115.054 77.7246C118.4 60.749 148.93 51.7908 160.642 41.8862C161.479 41.4151 160.642 40 160.224 40C153.951 40 112.964 64.5203 112.964 77.7245L111.291 75.3673L109.618 77.7245C109.618 64.5213 69.0489 40 62.7757 40C62.3579 40 61.5214 41.4141 62.3579 41.8862C74.0684 51.7882 104.6 60.7479 107.946 77.7246C108.782 83.3832 105.018 85.2693 105.018 86.2123L108.364 92.8139C107.11 92.8139 105.855 94.2281 105.018 94.7001L98.3266 80.5538H96.2359C96.2359 81.0249 95.8181 86.6834 95.3994 87.1554C94.9817 87.1554 90.3806 82.912 89.9629 81.0259C89.1264 81.0259 89.1264 81.0259 89.1264 81.969H88.2899V82.9121C92.0536 83.3831 97.0724 97.0583 97.0724 84.3262C98.7454 87.1554 103.345 97.0574 103.345 97.0574C101.255 100.83 97.0724 98.0005 97.0724 104.602C94.1452 104.131 89.1264 97.5294 85.7807 100.359C82.4347 104.131 75.3253 112.619 74.9066 112.619C72.8159 112.148 68.215 111.676 66.1241 111.676C66.1241 117.334 77.4159 114.505 77.8346 114.033C79.0888 112.147 85.3627 104.131 87.4535 102.245C88.7078 102.716 91.6359 105.074 92.8901 106.017C96.6538 108.846 97.4902 107.903 97.4902 111.676C97.4902 125.35 102.09 123.936 96.2359 127.708C87.8712 133.838 77.4158 143.741 76.1607 155.057C75.743 157.414 74.07 171.56 79.5067 170.617C79.5067 170.617 80.7609 176.747 81.1796 179.105L73.2335 181.462C69.8876 187.592 83.2711 180.991 83.2711 178.633C83.2711 178.162 81.5982 170.145 81.5982 169.674C86.1983 166.374 79.9253 156.943 78.6709 151.755C83.2711 147.512 95.4002 131.951 98.7461 129.593C93.3096 140.91 101.673 170.147 111.293 172.033H111.29Z" fill="white"/>
</svg>
