<svg width="60" height="60" viewBox="0 0 223 223" fill="none" xmlns="http://www.w3.org/2000/svg">
<circle cx="111.5" cy="111.5" r="111.5" fill="black"/>
<path d="M155.616 163.388L142.029 159.622L138.667 136.9C138.671 136.843 138.696 136.795 138.696 136.737C138.696 135.96 138.26 135.224 137.68 134.897L120.433 119.357C120.47 118.825 120.47 118.293 120.47 117.721V102.786L128.428 105.776L138.98 121.622C139.34 122.158 139.884 122.44 140.432 122.44C140.81 122.44 141.195 122.305 141.522 122.031C142.324 121.352 142.488 120.072 141.888 119.169L130.995 102.811C130.77 102.476 130.465 102.225 130.117 102.099L120.469 98.4673V96.4883L116.838 98.533V98.4107L116.656 98.533L113.207 100.414L112.299 100.946V150.756C112.589 150.592 112.844 150.306 113.025 149.938C113.025 149.897 113.062 149.856 113.062 149.815C115.53 144.172 117.455 138.243 118.69 132.108L119.271 132.313L135.193 138.304L138.642 161.618C138.762 162.424 139.295 163.074 140 163.265L154.753 167.355C154.898 167.396 155.043 167.416 155.185 167.416C156.005 167.416 156.746 166.794 156.946 165.862C157.188 164.766 156.592 163.658 155.616 163.388L155.616 163.388Z" fill="white"/>
<path d="M106.162 98.538L105.944 98.4157V98.4567L102.314 96.412V98.4686L92.6591 102.092C92.3066 102.222 92.0018 102.472 91.7806 102.804L80.8877 119.162C80.2888 120.065 80.4517 121.345 81.2541 122.024C81.5807 122.298 81.9624 122.433 82.3433 122.433C82.8912 122.433 83.4399 122.151 83.7957 121.615L94.3473 105.769L102.317 102.775V117.715C102.317 118.287 102.318 118.819 102.354 119.351L84.8524 135.136C84.7219 135.255 84.6238 135.402 84.5258 135.549C84.5006 135.59 84.4642 135.618 84.4382 135.659C84.315 135.88 84.2348 136.126 84.191 136.379C84.191 136.391 84.1837 136.399 84.1805 136.407L80.7456 159.619L67.3767 163.385C66.4001 163.659 65.8116 164.767 66.0548 165.863C66.2582 166.801 66.999 167.418 67.816 167.418C67.961 167.418 68.1102 167.398 68.2553 167.356L82.779 163.267C83.4801 163.071 84.0134 162.421 84.1301 161.619L87.5795 138.309L103.512 132.314L104.093 132.109C105.327 138.202 107.216 144.173 109.721 149.816C109.721 149.857 109.757 149.898 109.757 149.939C109.939 150.307 110.193 150.593 110.484 150.757V100.947L109.576 100.415L106.162 98.538Z" fill="white"/>
<path d="M116.84 96.124L118.655 95.1016V95.0605L120.252 94.1203L120.471 93.998V92.1541L130.485 85.337C130.713 85.1818 130.906 84.9728 131.055 84.7236L138.317 72.4551C138.872 71.5149 138.647 70.247 137.812 69.6207C136.98 68.9991 135.854 69.2483 135.295 70.1894L128.255 82.0681L120.289 87.495C119.926 83.5277 118.909 79.6028 117.311 76.0444C116.865 75.0102 116.12 74.2653 115.248 73.8153C115.099 71.8609 115.248 66.1476 117.685 63.1543C118.818 61.7641 120.32 61.0895 122.282 61.0895C123.283 61.0895 124.097 60.173 124.097 59.0447C124.097 57.9165 123.283 57 122.282 57C119.289 57 116.843 58.141 115.013 60.3903C111.657 64.5128 111.534 71.0887 111.6 73.3461H111.185C111.215 70.6386 110.91 64.3291 107.67 60.362C105.844 58.1283 103.433 57 100.496 57C99.4944 57 98.6807 57.9165 98.6807 59.0447C98.6807 60.173 99.4944 61.0895 100.496 61.0895C102.399 61.0895 103.869 61.7559 104.988 63.1224C107.569 66.2718 107.598 72.0828 107.547 73.8081C106.665 74.2581 105.91 75.0021 105.438 76.0409L105.183 76.6132C103.694 80.0071 102.75 83.6876 102.46 87.4504V87.4751L94.5195 82.0683L87.4829 70.1805C86.9237 69.2403 85.7947 68.9901 84.963 69.6118C84.1315 70.238 83.9029 71.5059 84.4613 72.4461L91.7232 84.7146C91.8724 84.9638 92.0685 85.1729 92.293 85.328L102.315 92.1533V93.9525L102.569 94.0748L104.13 95.015V95.0972L105.946 96.1195L106.345 96.324L109.576 98.1643L111.392 99.1867L113.207 98.1643L116.84 96.124Z" fill="white"/>
</svg>
