<svg width="60" height="60" viewBox="0 0 223 223" fill="none" xmlns="http://www.w3.org/2000/svg">
<circle cx="111.5" cy="111.5" r="111.5" fill="black"/>
<path d="M134.894 52C132.111 52 129.819 54.5889 129.819 57.7312C129.819 58.3276 129.928 58.8902 130.081 59.4323L126.171 63.8469C125.245 62.9028 124.264 62.0201 123.198 61.2682C119.885 58.9248 116.185 57.7486 112.484 57.7392C108.783 57.7392 105.083 58.8889 101.762 61.214C100.674 61.9781 99.6753 62.8752 98.7335 63.8378L94.8401 59.4405C94.9924 58.8984 95.102 58.3347 95.102 57.7394C95.102 54.5961 92.81 52.0071 90.0267 52.0071C87.2435 52.0071 84.9514 54.596 84.9514 57.7394C84.9514 60.8817 87.2435 63.4707 90.0267 63.4707C90.7917 63.4707 91.4986 63.2375 92.152 62.8887L95.9821 67.2145C93.8605 70.3578 92.3432 74.0668 91.5966 78.0682H91.6437C91.9138 78.0682 92.1848 78.0723 92.453 78.1234C106.236 80.6295 118.891 81.4048 132.19 78.1787C132.563 78.0866 132.944 78.06 133.324 78.0917C132.574 74.0861 131.051 70.3824 128.923 67.2381L132.769 62.8949C133.423 63.2427 134.13 63.4769 134.894 63.4769C137.678 63.4769 139.97 60.888 139.97 57.7457C139.97 54.6024 137.678 52.0134 134.894 52.0134L134.894 52Z" fill="white"/>
<path d="M91.8 82.6464C76.7689 90.8192 69.8303 107.183 69.8257 125.044C69.8257 150.563 86.4646 168.857 110.175 169.973V84.7779C104.12 84.5396 98.0381 83.7806 91.8009 82.6462L91.8 82.6464ZM133.045 82.6464C126.677 84.192 120.453 84.8241 114.235 84.8497V170C138.213 169.122 155.09 150.743 155.09 125.045C155.074 107.169 148.102 90.8017 133.044 82.6475L133.045 82.6464ZM98.2477 96.7159C99.3243 96.7159 100.358 97.1998 101.119 98.059C101.88 98.9192 102.308 100.085 102.308 101.302C102.308 102.518 101.88 103.684 101.119 104.544C100.358 105.403 99.3243 105.887 98.2477 105.887C97.171 105.887 96.1378 105.403 95.3765 104.544C94.6152 103.684 94.1874 102.518 94.1874 101.302C94.1874 100.085 94.6152 98.9192 95.3765 98.059C96.1378 97.1998 97.171 96.7159 98.2477 96.7159ZM126.669 96.7159C127.746 96.7159 128.779 97.1998 129.541 98.059C130.302 98.9192 130.73 100.085 130.73 101.302C130.73 102.518 130.302 103.684 129.541 104.544C128.779 105.403 127.746 105.887 126.669 105.887C125.593 105.887 124.56 105.403 123.798 104.544C123.037 103.684 122.609 102.518 122.609 101.302C122.609 100.085 123.037 98.9192 123.798 98.059C124.56 97.1998 125.593 96.7159 126.669 96.7159ZM88.097 116.204C89.7121 116.204 91.2619 116.928 92.4037 118.218C93.5454 119.508 94.1873 121.258 94.1873 123.082C94.1873 124.905 93.5456 126.655 92.4037 127.945C91.2617 129.235 89.7119 129.959 88.097 129.959C86.4822 129.959 84.9321 129.235 83.7904 127.945C82.6484 126.655 82.0068 124.905 82.0068 123.082C82.0068 121.258 82.6484 119.508 83.7904 118.218C84.9323 116.928 86.4822 116.204 88.097 116.204ZM136.82 116.204C138.435 116.204 139.985 116.928 141.127 118.218C142.268 119.508 142.91 121.258 142.91 123.082C142.91 124.905 142.269 126.655 141.127 127.945C139.985 129.235 138.435 129.959 136.82 129.959C135.205 129.959 133.655 129.235 132.513 127.945C131.371 126.655 130.73 124.905 130.73 123.082C130.73 121.258 131.371 119.508 132.513 118.218C133.655 116.928 135.205 116.204 136.82 116.204ZM96.2175 141.423C97.5634 141.423 98.8548 142.026 99.8066 143.101C100.758 144.176 101.293 145.634 101.293 147.154C101.293 148.674 100.758 150.133 99.8066 151.207C98.8549 152.282 97.5634 152.887 96.2175 152.887C94.8716 152.887 93.5802 152.282 92.6285 151.207C91.6769 150.133 91.1422 148.674 91.1422 147.154C91.1422 145.634 91.6769 144.177 92.6285 143.101C93.5801 142.026 94.8716 141.423 96.2175 141.423ZM128.7 141.423C130.045 141.423 131.337 142.026 132.289 143.101C133.24 144.176 133.775 145.634 133.775 147.154C133.775 148.674 133.24 150.133 132.289 151.207C131.337 152.282 130.045 152.887 128.7 152.887C127.354 152.887 126.062 152.282 125.11 151.207C124.159 150.133 123.624 148.674 123.624 147.154C123.624 145.634 124.159 144.177 125.11 143.101C126.062 142.026 127.354 141.423 128.7 141.423Z" fill="white"/>
</svg>
