<svg width="60" height="60" viewBox="0 0 223 223" fill="none" xmlns="http://www.w3.org/2000/svg">
<circle cx="111.5" cy="111.5" r="111.5" fill="white"/>
<path d="M80.0575 162.266C80.6894 160.492 81.7541 158.862 83.1742 157.494L82.3894 156.398L82.3905 156.397C80.6972 157.952 79.4344 159.834 78.7016 161.896C78.6454 162.056 78.6622 162.228 78.7488 162.377C78.8354 162.526 78.9849 162.638 79.1648 162.688C79.5392 162.793 79.9384 162.61 80.0564 162.277L80.0575 162.266Z" fill="black"/>
<path d="M76.644 41.0095C76.4494 40.9795 76.2493 41.0214 76.0919 41.1273C75.9345 41.2331 75.8333 41.3928 75.813 41.5665C75.7928 41.7412 75.8558 41.9159 75.9862 42.0467C76.1166 42.1785 76.3033 42.2563 76.5012 42.2613C83.824 42.9202 90.7356 45.5877 96.2753 49.8922C101.814 54.1959 105.708 59.924 107.415 66.2822L108.831 66.1155C107.078 59.4759 103.035 53.4881 97.2646 48.9869C91.4943 44.4867 84.2849 41.6975 76.6436 41.0095L76.644 41.0095Z" fill="black"/>
<path d="M93.0303 66.6577C93.1798 69.3562 94.1254 71.9716 95.7726 74.2428L95.4937 76.0787L95.4937 76.0777C93.1528 73.3823 91.7979 70.1159 91.6114 66.7157C91.5743 66.3682 91.8621 66.0598 92.2534 66.0268C92.6458 65.9939 92.9932 66.2495 93.0303 66.5969L93.0303 66.6577Z" fill="black"/>
<path d="M82.9475 74.9431C82.9138 74.5967 83.2016 74.2922 83.5907 74.2592C83.9797 74.2263 84.326 74.4779 84.3665 74.8233C84.5632 78.519 85.8551 82.1017 88.113 85.2106L87.6239 86.8129L87.625 86.8129C84.8017 83.3229 83.1782 79.182 82.9476 74.8904L82.9475 74.9431Z" fill="black"/>
<path d="M76.3994 90.6116C77.4698 96.2581 81.0833 101.273 86.4083 104.503L85.6752 105.587C79.9951 102.166 76.1372 96.8298 74.9982 90.8202C74.9532 90.4848 75.2141 90.1773 75.5896 90.1224C75.9652 90.0685 76.3227 90.2871 76.3992 90.6176L76.3994 90.6116Z" fill="black"/>
<path d="M83.7678 155.893C83.7228 156.186 83.9049 156.47 84.213 156.584C93.0427 159.865 102.518 161.554 112.09 161.554C121.66 161.554 131.136 159.865 139.966 156.584C140.273 156.47 140.456 156.186 140.411 155.893C139.859 152.262 137.93 148.908 134.94 146.382C120.032 150.34 104.144 150.34 89.2372 146.382C86.2474 148.908 84.3181 152.262 83.766 155.893L83.7678 155.893Z" fill="black"/>
<path d="M138.981 143.252C138.067 139.553 135.619 136.295 132.123 134.125C118.985 137.152 105.195 137.152 92.0565 134.125C88.5619 136.295 86.1132 139.553 85.199 143.252C85.1158 143.576 85.3182 143.903 85.6701 144.015C102.752 149.448 121.428 149.448 138.508 144.015C138.862 143.903 139.064 143.576 138.981 143.252L138.981 143.252Z" fill="black"/>
<path d="M127.041 75.0939C127.034 73.7981 126.608 72.5313 125.814 71.4432C125.02 70.356 123.89 69.4945 122.559 68.9604C115.825 66.6364 108.354 66.6364 101.62 68.9604C100.29 69.4945 99.1601 70.356 98.3651 71.4432C97.5713 72.5313 97.1452 73.7981 97.1384 75.0939C97.4049 74.9541 97.6736 74.8184 97.9457 74.6886C107.182 72.2917 116.998 72.2917 126.235 74.6886C126.507 74.8184 126.776 74.9541 127.041 75.0939L127.041 75.0939Z" fill="black"/>
<path d="M98.4703 170.319C107.333 172.814 116.846 172.814 125.708 170.319C131.349 168.436 135.567 164.186 136.959 158.98C120.881 164.103 103.296 164.103 87.2202 158.98C88.6122 164.186 92.8296 168.436 98.4706 170.319L98.4703 170.319Z" fill="black"/>
<path d="M85.6733 131.062C102.755 136.495 121.428 136.495 138.512 131.062C138.865 130.95 139.067 130.623 138.984 130.3C138.349 127.724 136.965 125.342 134.969 123.389C120.046 127.356 104.141 127.356 89.217 123.389C87.2224 125.342 85.8384 127.724 85.2031 130.3C85.1188 130.623 85.3212 130.95 85.6731 131.062L85.6733 131.062Z" fill="black"/>
<path d="M85.6733 121.034C102.755 126.467 121.428 126.467 138.512 121.034C138.865 120.923 139.067 120.595 138.984 120.271C138.349 117.697 136.965 115.314 134.969 113.363C120.046 117.33 104.141 117.33 89.217 113.363C87.2224 115.315 85.8384 117.697 85.2031 120.271C85.1188 120.595 85.3212 120.922 85.6731 121.034L85.6733 121.034Z" fill="black"/>
<path d="M138.981 110.254C138.346 107.68 136.961 105.298 134.966 103.345C120.042 107.312 104.138 107.312 89.214 103.345C87.2182 105.298 85.8342 107.68 85.1989 110.254C85.1236 110.574 85.3237 110.894 85.67 111.005C102.751 116.439 121.428 116.439 138.508 111.005C138.855 110.895 139.057 110.575 138.981 110.254L138.981 110.254Z" fill="black"/>
<path d="M85.6735 100.982C102.755 106.415 121.429 106.415 138.512 100.982C138.865 100.872 139.067 100.543 138.984 100.22C138.015 96.2935 135.321 92.8723 131.499 90.7168C118.607 92.0785 105.579 92.0785 92.6871 90.7168C88.8655 92.8722 86.1702 96.2932 85.2022 100.22C85.1178 100.543 85.3202 100.871 85.6721 100.982L85.6735 100.982Z" fill="black"/>
<path d="M88.7616 88.3269C88.7053 88.6843 88.9864 89.0157 89.389 89.0656C104.449 90.9484 119.73 90.9484 134.79 89.0656C135.192 89.0157 135.473 88.6843 135.417 88.3269C134.524 83.0549 130.93 78.4489 125.685 75.8531C116.803 73.574 107.376 73.574 98.4929 75.8531C93.2488 78.4486 89.6543 83.0549 88.7614 88.3269L88.7616 88.3269Z" fill="black"/>
<path d="M76.4769 151.98C77.7261 148.622 80.4382 145.848 84.0068 144.278L83.819 142.968L83.819 142.967C79.6995 144.644 76.5511 147.767 75.1289 151.587C75.0626 151.748 75.0727 151.926 75.1559 152.08C75.2402 152.233 75.3909 152.351 75.5741 152.404C75.7574 152.458 75.9564 152.443 76.1273 152.363C76.2983 152.283 76.4242 152.145 76.4781 151.981L76.4769 151.98Z" fill="black"/>
<path d="M72.073 134.901C74.7625 129.433 79.5243 124.975 85.5317 122.301L87.4364 122.897L87.4353 122.897C81.1454 125.346 76.1253 129.808 73.375 135.397C73.3075 135.558 73.167 135.688 72.9882 135.755C72.8094 135.823 72.6059 135.823 72.4283 135.754C72.2495 135.685 72.11 135.554 72.0437 135.393C71.9763 135.23 71.9875 135.05 72.073 134.896L72.073 134.901Z" fill="black"/>
<path d="M145.477 161.891C144.744 159.829 143.481 157.946 141.789 156.393L141.005 157.489C142.426 158.858 143.489 160.487 144.122 162.261C144.241 162.593 144.64 162.777 145.014 162.672C145.389 162.567 145.595 162.212 145.476 161.88L145.477 161.891Z" fill="black"/>
<path d="M147.682 42.2617C148.049 42.2038 148.303 41.9053 148.266 41.5769C148.228 41.2484 147.91 41.0009 147.539 41.0098C139.898 41.6977 132.689 44.4868 126.919 48.9872C121.148 53.4885 117.105 59.4763 115.352 66.1158L116.768 66.2825C118.476 59.9244 122.369 54.1962 127.908 49.8925C133.448 45.5878 140.359 42.9205 147.682 42.2617L147.682 42.2617Z" fill="black"/>
<path d="M128.688 76.0778C131.029 73.3824 132.384 70.1161 132.57 66.7158C132.589 66.5481 132.533 66.3804 132.413 66.2496C132.292 66.1188 132.118 66.037 131.928 66.021C131.739 66.005 131.55 66.0569 131.404 66.1647C131.259 66.2736 131.167 66.4283 131.151 66.597C131.002 69.2955 130.056 71.9109 128.409 74.1821L128.688 76.0778Z" fill="black"/>
<path d="M141.235 74.9431C141.255 74.7754 141.197 74.6067 141.077 74.4759C140.957 74.3451 140.783 74.2633 140.593 74.2473C140.404 74.2313 140.215 74.2832 140.069 74.3921C139.922 74.4999 139.831 74.6556 139.816 74.8233C139.619 78.519 138.327 82.1018 136.069 85.2107L136.558 86.8129C139.38 83.323 141.004 79.1821 141.234 74.8904L141.235 74.9431Z" fill="black"/>
<path d="M137.772 104.504L138.507 105.588C144.188 102.167 148.044 96.8311 149.183 90.8215C149.229 90.4851 148.968 90.1776 148.592 90.1227C148.216 90.0688 147.859 90.2874 147.782 90.6189C146.712 96.2653 143.097 101.281 137.772 104.51L137.772 104.504Z" fill="black"/>
<path d="M149.052 151.586C147.63 147.766 144.482 144.643 140.362 142.966L140.173 144.276L140.173 144.277C143.742 145.846 146.454 148.621 147.703 151.979C147.834 152.298 148.227 152.467 148.591 152.361C148.955 152.255 149.159 151.912 149.051 151.586L149.052 151.586Z" fill="black"/>
<path d="M152.106 134.901C152.239 135.215 152.07 135.568 151.723 135.7C151.376 135.834 150.972 135.702 150.803 135.401C148.054 129.814 143.034 125.351 136.744 122.902L138.649 122.306L138.648 122.306C144.655 124.98 149.417 129.438 152.105 134.906L152.106 134.901Z" fill="black"/>
</svg>
