<svg width="60" height="60" viewBox="0 0 223 223" fill="none" xmlns="http://www.w3.org/2000/svg">
<circle cx="111.5" cy="111.5" r="111.5" fill="white"/>
<path d="M124.818 89.9281C124.818 89.9281 124.263 87.1519 122.321 87.1519C122.321 87.1519 133.424 82.433 134.812 72.9954C134.812 72.9954 146.75 65.7781 137.865 55.5068C137.865 55.5068 141.752 67.9973 133.145 70.219C133.145 70.219 128.983 84.0975 117.324 84.0975C117.324 84.0975 127.502 71.0146 114.574 66.3494C115.081 63.5342 116.428 59.4747 119.991 58.7606C119.991 58.7606 122.492 59.1774 121.104 57.2348C121.104 57.2348 119.968 55.2275 119.298 57.2348C119.298 57.2348 115.074 59.5625 113.533 66.0082C112.901 65.8193 112.225 65.6487 111.496 65.4976C110.766 65.6487 110.087 65.8193 109.454 66.0082C107.918 59.5613 103.69 57.2348 103.69 57.2348C103.022 55.2275 101.884 57.2348 101.884 57.2348C100.496 59.1774 102.996 58.7606 102.996 58.7606C106.56 59.4735 107.906 63.5343 108.416 66.3494C95.4877 71.0146 105.666 84.0975 105.666 84.0975C94.0046 84.0975 89.8427 70.219 89.8427 70.219C81.2374 67.9973 85.1226 55.5068 85.1226 55.5068C76.2406 65.7769 88.1779 72.9954 88.1779 72.9954C89.566 82.433 100.667 87.1519 100.667 87.1519C98.727 87.1519 98.1688 89.9281 98.1688 89.9281C60.9735 62.7242 40.9844 84.6536 40.9844 84.6536C51.5333 101.31 67.0782 97.701 67.0782 97.701L63.7499 99.3669C74.0199 108.527 92.6173 100.476 92.6173 100.476C91.3389 110.684 96.9096 114.701 99.5796 116.02C95.1715 115.077 86.5089 119.075 86.5089 119.075C81.1514 116.458 75.6844 120.463 75.6844 120.463C70.5609 117.98 65.6898 124.626 65.6898 124.626C68.466 121.85 74.8508 122.405 74.8508 122.405C80.6834 124.348 86.5089 121.294 86.5089 121.294C89.2851 123.237 101.223 119.628 101.223 119.628L98.4473 123.791C92.6181 123.513 87.0669 132.952 87.0669 132.952C80.9588 135.449 81.2343 143.501 81.2343 143.501C75.9304 145.319 74.8506 154.049 74.8506 154.049C75.6842 149.052 82.0679 145.999 82.0679 145.999C86.788 142.667 90.6744 135.729 90.6744 135.729C94.8401 134.896 98.1684 129.621 98.1684 129.621C93.1728 165.154 111.494 167.65 111.494 167.65C111.494 167.65 129.816 165.152 124.817 129.621C124.817 129.621 128.149 134.896 132.313 135.729C132.313 135.729 136.199 142.669 140.916 145.999C140.916 145.999 147.299 149.052 148.133 154.049C148.133 154.049 147.055 145.32 141.749 143.501C141.749 143.501 142.025 135.449 135.92 132.952C135.92 132.952 130.366 123.513 124.54 123.791L121.763 119.628C121.763 119.628 133.701 123.236 136.474 121.294C136.474 121.294 142.303 124.348 148.134 122.405C148.134 122.405 154.521 121.85 157.295 124.626C157.295 124.626 152.423 117.979 147.3 120.463C147.3 120.463 141.833 116.458 136.476 119.075C136.476 119.075 127.817 115.077 123.405 116.02C126.077 114.701 131.646 110.684 130.367 100.476C130.367 100.476 148.968 108.526 159.238 99.3669L155.906 97.701C155.906 97.701 171.454 101.309 182 84.6536C182 84.6536 162.014 62.7242 124.816 89.9281H124.818Z" fill="black"/>
</svg>
