<svg width="60" height="60" viewBox="0 0 223 223" fill="none" xmlns="http://www.w3.org/2000/svg">
<circle cx="111.5" cy="111.5" r="111.5" fill="white"/>
<path d="M142.484 107.52L123.066 103.649C123.062 103.649 123.058 103.652 123.051 103.65C123.2 102.809 123.282 101.947 123.282 101.074C123.282 100.187 123.18 99.3272 123.032 98.4892C123.055 98.4856 123.075 98.4883 123.098 98.483L142.71 93.8756L153.812 79.363C154.17 78.8949 154.123 78.1889 153.707 77.785C153.293 77.3821 152.666 77.4338 152.306 77.9027L141.645 91.8411L122.692 96.2905C122.625 96.3057 122.572 96.3485 122.511 96.377C122.212 95.4962 121.828 94.6707 121.377 93.8915C121.451 93.8594 121.526 93.8264 121.592 93.7729L144.774 75.3885L134.986 53.6138C134.737 53.0629 134.143 52.8409 133.649 53.1217C133.16 53.4008 132.965 54.0738 133.212 54.6266L142.222 74.6727L120.446 91.9427C120.359 92.0104 120.298 92.0996 120.237 92.1905C119.6 91.3953 118.879 90.6892 118.088 90.0866C118.07 90.0723 118.051 90.0598 118.031 90.0456C117.758 89.8396 117.476 89.6471 117.188 89.467C117.076 89.3983 116.96 89.3368 116.846 89.2717C116.647 89.1567 116.447 89.0453 116.242 88.9437C116.09 88.8679 115.935 88.8002 115.781 88.7315C115.608 88.6548 115.43 88.5808 115.251 88.5131C115.082 88.448 114.909 88.3883 114.736 88.3312C114.559 88.2733 114.38 88.2242 114.198 88.1752C114.028 88.1306 113.856 88.0861 113.684 88.0486C113.474 88.004 113.261 87.9693 113.046 87.939C112.901 87.9176 112.757 87.8908 112.609 87.8748C112.245 87.8364 111.876 87.8124 111.502 87.8124C111.128 87.8124 110.761 87.8364 110.395 87.8748C110.249 87.8899 110.104 87.9185 109.959 87.939C109.745 87.9693 109.531 88.004 109.32 88.0486C109.149 88.0861 108.977 88.1306 108.807 88.1752C108.626 88.2234 108.446 88.2733 108.269 88.3312C108.095 88.3874 107.924 88.4471 107.753 88.5131C107.574 88.5808 107.399 88.6539 107.225 88.7306C107.07 88.7993 106.915 88.867 106.761 88.9437C106.557 89.0462 106.359 89.1559 106.164 89.2682C106.047 89.335 105.93 89.3975 105.816 89.4679C105.533 89.6453 105.255 89.8361 104.985 90.0375C104.961 90.0554 104.937 90.0696 104.914 90.0875C104.134 90.683 103.421 91.381 102.787 92.1647C102.732 92.0853 102.678 92.0033 102.601 91.9427L80.8265 74.6727L89.8412 54.6266C90.0889 54.0747 89.8926 53.4008 89.4043 53.1226C88.9127 52.8427 88.3159 53.0629 88.069 53.6147L78.2816 75.3875L101.463 93.772C101.521 93.8183 101.583 93.8433 101.646 93.8745C101.196 94.6537 100.807 95.4801 100.509 96.36C100.46 96.3387 100.417 96.3021 100.363 96.2896L81.4085 91.8393L70.7466 77.9009C70.3881 77.4319 69.7604 77.3793 69.3456 77.7832C68.9292 78.187 68.8825 78.894 69.2411 79.3611L80.3431 93.8738L99.9581 98.4802C99.9652 98.4811 99.9731 98.4802 99.9818 98.4829C99.833 99.3236 99.7333 100.184 99.7333 101.074C99.7333 101.949 99.8148 102.81 99.9636 103.654L80.5711 107.518L69.1287 130.45C68.8588 130.99 69.029 131.672 69.5063 131.975C69.6606 132.071 69.8276 132.118 69.9931 132.118C70.3405 132.118 70.6785 131.912 70.8598 131.548L81.8414 109.539L100.333 105.853C100.398 105.839 100.451 105.8 100.51 105.774C100.808 106.655 101.186 107.498 101.644 108.288C101.577 108.321 101.507 108.341 101.447 108.391L81.6522 124.761L71.4225 168.598C71.2832 169.194 71.5998 169.807 72.1317 169.964C72.2172 169.988 72.3011 170 72.385 170C72.8267 170 73.228 169.667 73.3459 169.166L83.3961 126.098L102.622 110.197C102.695 110.138 102.743 110.058 102.796 109.984C103.032 110.276 103.272 110.563 103.532 110.831C103.565 110.813 103.6 110.801 103.634 110.781C103.723 110.735 103.814 110.695 103.905 110.652C104.143 110.536 104.38 110.421 104.618 110.317C104.782 110.243 104.949 110.18 105.116 110.111C105.277 110.046 105.438 109.981 105.602 109.922C105.816 109.841 106.035 109.768 106.254 109.697C106.365 109.661 106.476 109.624 106.586 109.591C106.838 109.514 107.092 109.446 107.347 109.379C107.422 109.359 107.497 109.34 107.573 109.323C107.854 109.255 108.136 109.193 108.42 109.141C108.462 109.133 108.502 109.126 108.543 109.119C109.513 108.945 110.501 108.846 111.506 108.846C112.51 108.846 113.496 108.945 114.465 109.119C114.508 109.126 114.551 109.134 114.593 109.141C114.876 109.194 115.155 109.255 115.437 109.323C115.514 109.342 115.591 109.361 115.667 109.381C115.922 109.446 116.172 109.515 116.421 109.592C116.537 109.627 116.649 109.666 116.764 109.701C116.978 109.772 117.195 109.844 117.406 109.923C117.573 109.984 117.739 110.05 117.903 110.117C118.066 110.184 118.228 110.247 118.39 110.317C118.637 110.424 118.88 110.541 119.122 110.66C119.206 110.701 119.29 110.739 119.374 110.781C119.409 110.799 119.445 110.814 119.481 110.832C119.746 110.553 119.996 110.26 120.238 109.96C120.295 110.046 120.35 110.131 120.431 110.199L139.658 126.097L149.708 169.165C149.825 169.667 150.226 169.999 150.667 169.999C150.751 169.999 150.836 169.987 150.922 169.963C151.452 169.806 151.769 169.193 151.631 168.597L141.401 124.76L121.606 108.392C121.536 108.333 121.454 108.307 121.377 108.272C121.833 107.481 122.211 106.639 122.508 105.759C122.577 105.794 122.642 105.837 122.722 105.854L141.213 109.54L152.194 131.549C152.377 131.914 152.714 132.119 153.063 132.119C153.228 132.119 153.394 132.072 153.549 131.976C154.028 131.672 154.198 130.99 153.929 130.451L142.484 107.52Z" fill="black"/>
<path d="M119.042 72.2368C118.94 70.995 118.468 69.828 117.634 68.7476C117.348 70.6464 116.754 73.4396 115.649 75.5006C116.431 75.9081 117.164 76.4171 117.819 77.0296C118.404 76.007 119.208 74.2231 119.042 72.2369V72.2368Z" fill="black"/>
<path d="M107.364 75.5027C106.257 73.4425 105.666 70.6503 105.378 68.7496C104.544 69.8292 104.072 70.9962 103.97 72.2389C103.807 74.2252 104.608 76.0107 105.194 77.0316C105.85 76.4191 106.582 75.9101 107.364 75.5027V75.5027Z" fill="black"/>
<path d="M104.9 87.603C104.997 87.5433 105.096 87.488 105.195 87.4301C105.447 87.2821 105.703 87.1421 105.962 87.0138C106.096 86.946 106.229 86.8792 106.363 86.8185C106.628 86.6973 106.895 86.5885 107.167 86.4878C107.292 86.4397 107.415 86.3879 107.541 86.3443C107.891 86.2257 108.246 86.1232 108.604 86.0349C108.749 85.9993 108.899 85.9725 109.046 85.9413C109.316 85.8851 109.587 85.8379 109.86 85.8004C109.997 85.7808 110.133 85.7612 110.272 85.747C110.68 85.7051 111.092 85.6765 111.505 85.6765C111.918 85.6765 112.332 85.7059 112.74 85.747C112.879 85.7612 113.016 85.7799 113.151 85.8004C113.424 85.8379 113.697 85.8851 113.967 85.9413C114.116 85.9707 114.263 85.9993 114.409 86.0349C114.77 86.1232 115.126 86.2257 115.477 86.3452C115.6 86.3888 115.72 86.4397 115.843 86.486C116.114 86.5894 116.384 86.6982 116.649 86.8194C116.782 86.8809 116.916 86.9469 117.05 87.0138C117.31 87.1439 117.565 87.2821 117.82 87.4319C117.917 87.4898 118.016 87.5442 118.114 87.6048C118.469 87.8259 118.817 88.0586 119.156 88.3153C119.4 87.4452 119.522 86.5475 119.522 85.6328C119.522 81.581 117.141 78.146 113.872 77.0058C113.869 77.0058 113.865 77.0049 113.859 77.0031C113.115 76.7437 112.323 76.6028 111.504 76.6028C110.686 76.6028 109.895 76.7437 109.152 77.0013C109.145 77.004 109.139 77.004 109.133 77.0067C105.867 78.1478 103.489 81.5819 103.489 85.6319C103.489 86.5466 103.611 87.4443 103.855 88.3144C104.196 88.0577 104.545 87.8241 104.9 87.603L104.9 87.603Z" fill="black"/>
<path d="M119.072 112.979C118.838 112.849 118.6 112.726 118.363 112.61C118.299 112.578 118.238 112.55 118.172 112.521C117.908 112.396 117.642 112.277 117.376 112.165C117.343 112.154 117.309 112.139 117.278 112.127C113.514 110.611 109.49 110.611 105.723 112.129C105.695 112.139 105.666 112.151 105.637 112.162C105.367 112.272 105.098 112.393 104.831 112.52C104.77 112.549 104.71 112.576 104.649 112.606C104.41 112.722 104.17 112.849 103.933 112.98C96.1396 117.248 90.6021 127.897 90.6021 140.337C90.6021 156.525 99.9784 169.698 111.504 169.698C123.031 169.698 132.407 156.525 132.407 140.337C132.408 127.897 126.869 117.248 119.072 112.98L119.072 112.979Z" fill="black"/>
</svg>
